<svg width="18" height="20" viewBox="0 0 18 20" fill="none" xmlns="http://www.w3.org/2000/svg">
    <path d="M15.1341 3.74977L16.018 4.63366C16.1377 4.75335 16.1889 4.90926 16.1717 5.1014C16.1545 5.29353 16.0743 5.46121 15.9311 5.60444L4.29661 17.2389C4.15338 17.3822 3.9857 17.4624 3.79356 17.4796C3.60143 17.4968 3.44552 17.4455 3.32583 17.3258L2.44194 16.4419C2.32225 16.3223 2.271 16.1663 2.2882 15.9742C2.3054 15.7821 2.38562 15.6144 2.52884 15.4712L14.1633 3.83667C14.3066 3.69345 14.4742 3.61323 14.6664 3.59603C14.8585 3.57883 15.0144 3.63008 15.1341 3.74977Z" fill="white"/>
    <path d="M15.3663 17.018L16.2502 16.1341C16.3699 16.0144 16.4212 15.8585 16.404 15.6664C16.3868 15.4742 16.3066 15.3066 16.1633 15.1633L4.52884 3.52884C4.38562 3.38562 4.21794 3.3054 4.0258 3.2882C3.83366 3.271 3.67775 3.32225 3.55806 3.44194L2.67417 4.32583C2.55448 4.44552 2.50323 4.60143 2.52043 4.79356C2.53763 4.9857 2.61785 5.15338 2.76107 5.29661L14.3956 16.9311C14.5388 17.0743 14.7065 17.1545 14.8986 17.1717C15.0907 17.1889 15.2467 17.1377 15.3663 17.018Z" fill="white"/>
</svg>
