<svg width="18" height="14" viewBox="0 0 18 14" fill="none" xmlns="http://www.w3.org/2000/svg">
    <path d="M18.0002 11.375V12.625C18.0002 12.7943 17.9262 12.9408 17.7782 13.0645C17.6302 13.1882 17.4549 13.25 17.2523 13.25H0.798675C0.596124 13.25 0.420837 13.1882 0.272812 13.0645C0.124788 12.9408 0.0507812 12.7943 0.0507812 12.625V11.375C0.0507812 11.2057 0.124788 11.0592 0.272812 10.9355C0.420837 10.8118 0.596124 10.75 0.798675 10.75H17.2523C17.4549 10.75 17.6302 10.8118 17.7782 10.9355C17.9262 11.0592 18.0002 11.2057 18.0002 11.375ZM18.0002 6.375V7.625C18.0002 7.79427 17.9262 7.94075 17.7782 8.06445C17.6302 8.18815 17.4549 8.25 17.2523 8.25H0.798675C0.596124 8.25 0.420837 8.18815 0.272812 8.06445C0.124788 7.94075 0.0507812 7.79427 0.0507812 7.625V6.375C0.0507812 6.20573 0.124788 6.05925 0.272812 5.93555C0.420837 5.81185 0.596124 5.75 0.798675 5.75H17.2523C17.4549 5.75 17.6302 5.81185 17.7782 5.93555C17.9262 6.05925 18.0002 6.20573 18.0002 6.375ZM18.0002 1.375V2.625C18.0002 2.79427 17.9262 2.94075 17.7782 3.06445C17.6302 3.18815 17.4549 3.25 17.2523 3.25H0.798675C0.596124 3.25 0.420837 3.18815 0.272812 3.06445C0.124788 2.94075 0.0507812 2.79427 0.0507812 2.625V1.375C0.0507812 1.20573 0.124788 1.05925 0.272812 0.935547C0.420837 0.811846 0.596124 0.75 0.798675 0.75H17.2523C17.4549 0.75 17.6302 0.811846 17.7782 0.935547C17.9262 1.05925 18.0002 1.20573 18.0002 1.375Z" fill="white"/>
</svg>
